<svg xmlns="http://www.w3.org/2000/svg" viewBox="0 0 50 50">
  <defs>
    <linearGradient id="gradient" x1="0" y1="25" x2="50" y2="25" gradientUnits="userSpaceOnUse">
      <stop offset="0" stop-color="#fdaf42" />
      <stop offset="0.47" stop-color="#fc51fa" />
      <stop offset="1" stop-color="#2cd4ff" />
    </linearGradient>
  </defs>
  <!-- Circular Icon -->
  <path d="M16.1.61a22.68 22.68 0 0 1 13.78 1.13 7.9 7.9 0 0 1 7.89-.95A7.66 7.66 0 0 1 42.1 9.5c-.17 1.22-1.12 2.15-1.35 3.32a21.8 21.8 0 0 1 .25 16.1 21.12 21.12 0 0 1-11.31 11.74A21.22 21.22 0 0 1 1.76 29.73a21.48 21.48 0 0 1 .66-18.41A21.2 21.2 0 0 1 16.1.61zm1.28 4.24A16.49 16.49 0 0 0 6.06 14a15.77 15.77 0 0 1 27.07 11c.17 4.08-1.71 7.89-4.13 11 7.55-3.49 11.05-13.28 8-20.91a7.87 7.87 0 0 1-8.81-3.44 8.79 8.79 0 0 1-.84-6.21 17 17 0 0 0-9.97-.59zm16.43-.21a3.22 3.22 0 1 0 3.95 4 3.26 3.26 0 0 0-3.95-4zm-20.36 9.72a11.38 11.38 0 0 0-6.64 6.47A11.11 11.11 0 0 1 16.56 19a10.29 10.29 0 0 1 7.29 9.35 11.19 11.19 0 0 1-2.24 7.17 11.18 11.18 0 0 0 7.06-11.77 11.39 11.39 0 0 0-15.22-9.4zm-1.34 8.75a6 6 0 0 0 1.07 11.74 6 6 0 1 0-1.07-11.74z" fill="url(#gradient)" />

  <!-- 'hi' Text -->
  <g transform="translate(-1,9.992198944091797)">
    <g data-gra="path-name">
      <g transform="scale(0.65)">
        <g>
          <path d="M4.5 0L4.5-52.5 10.5-52.5 10.5-36.98 13.8-37.95Q16.88-38.85 18.34-39.19 19.8-39.52 21.38-39.52L21.38-39.52Q24.07-39.52 25.35-37.65 26.63-35.77 26.63-32.77L26.63-32.77 26.63 0 20.63 0 20.63-30.82Q20.63-33 20.32-33.86 20.02-34.73 18.82-34.73L18.82-34.73Q18.22-34.73 10.5-32.32L10.5-32.32 10.5 0 4.5 0ZM41.7-45.38L35.7-45.38 35.7-51.38 41.7-51.38 41.7-45.38ZM41.7 0L35.7 0 35.7-39 41.7-39 41.7 0Z" transform="translate(-4.5, 52.5)" fill="#706f6f" stroke="#706f6f" stroke-width="2"></path>
        </g>
      </g>
    </g>
  </g>
</svg>
